<mxfile host="app.diagrams.net" agent="Mozilla/5.0 (Windows NT 10.0; Win64; x64) AppleWebKit/537.36 (KHTML, like Gecko) Chrome/131.0.0.0 Safari/537.36" version="26.0.10">
  <diagram name="Page-1" id="0YMlWPUaSXpWx9LEiFo_">
    <mxGraphModel dx="1050" dy="557" grid="1" gridSize="10" guides="1" tooltips="1" connect="1" arrows="1" fold="1" page="1" pageScale="1" pageWidth="827" pageHeight="1169" math="0" shadow="0">
      <root>
        <mxCell id="0" />
        <mxCell id="1" parent="0" />
        <mxCell id="ImTWSEPogcsz02FOuAvK-7" value="" style="edgeStyle=orthogonalEdgeStyle;rounded=0;orthogonalLoop=1;jettySize=auto;html=1;" edge="1" parent="1" source="ImTWSEPogcsz02FOuAvK-1" target="ImTWSEPogcsz02FOuAvK-3">
          <mxGeometry relative="1" as="geometry" />
        </mxCell>
        <mxCell id="ImTWSEPogcsz02FOuAvK-1" value="INICIO" style="strokeWidth=2;html=1;shape=mxgraph.flowchart.start_1;whiteSpace=wrap;" vertex="1" parent="1">
          <mxGeometry x="364" y="20" width="100" height="60" as="geometry" />
        </mxCell>
        <mxCell id="ImTWSEPogcsz02FOuAvK-2" value="FIM" style="strokeWidth=2;html=1;shape=mxgraph.flowchart.start_1;whiteSpace=wrap;" vertex="1" parent="1">
          <mxGeometry x="364" y="500" width="100" height="60" as="geometry" />
        </mxCell>
        <mxCell id="ImTWSEPogcsz02FOuAvK-8" value="" style="edgeStyle=orthogonalEdgeStyle;rounded=0;orthogonalLoop=1;jettySize=auto;html=1;" edge="1" parent="1" source="ImTWSEPogcsz02FOuAvK-3" target="ImTWSEPogcsz02FOuAvK-4">
          <mxGeometry relative="1" as="geometry" />
        </mxCell>
        <mxCell id="ImTWSEPogcsz02FOuAvK-3" value="SALARIO" style="shape=parallelogram;html=1;strokeWidth=2;perimeter=parallelogramPerimeter;whiteSpace=wrap;rounded=1;arcSize=12;size=0.23;" vertex="1" parent="1">
          <mxGeometry x="364" y="110" width="100" height="60" as="geometry" />
        </mxCell>
        <mxCell id="ImTWSEPogcsz02FOuAvK-9" value="" style="edgeStyle=orthogonalEdgeStyle;rounded=0;orthogonalLoop=1;jettySize=auto;html=1;" edge="1" parent="1" source="ImTWSEPogcsz02FOuAvK-4" target="ImTWSEPogcsz02FOuAvK-5">
          <mxGeometry relative="1" as="geometry" />
        </mxCell>
        <mxCell id="ImTWSEPogcsz02FOuAvK-4" value="ABONO" style="shape=parallelogram;html=1;strokeWidth=2;perimeter=parallelogramPerimeter;whiteSpace=wrap;rounded=1;arcSize=12;size=0.23;" vertex="1" parent="1">
          <mxGeometry x="364" y="200" width="100" height="60" as="geometry" />
        </mxCell>
        <mxCell id="ImTWSEPogcsz02FOuAvK-10" value="" style="edgeStyle=orthogonalEdgeStyle;rounded=0;orthogonalLoop=1;jettySize=auto;html=1;" edge="1" parent="1" source="ImTWSEPogcsz02FOuAvK-5" target="ImTWSEPogcsz02FOuAvK-6">
          <mxGeometry relative="1" as="geometry" />
        </mxCell>
        <mxCell id="ImTWSEPogcsz02FOuAvK-5" value="SALARIO NOVO = SALARIO + ABONO" style="rounded=1;whiteSpace=wrap;html=1;absoluteArcSize=1;arcSize=14;strokeWidth=2;" vertex="1" parent="1">
          <mxGeometry x="339" y="310" width="150" height="40" as="geometry" />
        </mxCell>
        <mxCell id="ImTWSEPogcsz02FOuAvK-11" value="" style="edgeStyle=orthogonalEdgeStyle;rounded=0;orthogonalLoop=1;jettySize=auto;html=1;" edge="1" parent="1" source="ImTWSEPogcsz02FOuAvK-6" target="ImTWSEPogcsz02FOuAvK-2">
          <mxGeometry relative="1" as="geometry" />
        </mxCell>
        <mxCell id="ImTWSEPogcsz02FOuAvK-6" value="ABONO&lt;div&gt;SALARIO NOVO&lt;/div&gt;" style="strokeWidth=2;html=1;shape=mxgraph.flowchart.display;whiteSpace=wrap;" vertex="1" parent="1">
          <mxGeometry x="364" y="400" width="100" height="60" as="geometry" />
        </mxCell>
      </root>
    </mxGraphModel>
  </diagram>
</mxfile>
